PathFileType	4	(X/Y/Z)	D:\TRACE\v60_Jaco2_6-2-23\ArmBodyNoDRS1-v60.trc
DataRate	CameraRate	NumFrames	NumMarkers	Units	OrigDataRate	OrigDataStartFrame	OrigNumFrames
100.00	100.00	      42	9	mm	100.00	1	      5320
Frame#	Time	front left toe			Front right toe			aft left toe			aft right toe			Arm			FL body			FR body			AL Body			AR Body			
		X1	Y1	Z1	X2	Y2	Z2	X3	Y3	Z3	X4	Y4	Z4	X5	Y5	Z5	X6	Y6	Z6	X7	Y7	Z7	X8	Y8	Z8	X9	Y9	Z9	

1	0.000	-244.75211	70.40524	-192.62117	138.07240	16.71451	-165.40775	-277.04962	10.90673	432.39133	78.95220	73.47063	457.21585	-59.53596	1192.82251	-190.15950	-122.72581	556.28430	-319.12637	35.35401	562.47034	-306.61862	-189.44449	535.63904	624.21765	-34.61499	528.81525	636.93396	
2	0.010	-244.47823	61.53162	-193.19923	138.05341	16.65393	-165.44868	-277.06097	11.01942	432.51428	78.15648	65.25794	456.71332	-59.54359	1192.64795	-190.44379	-122.50482	556.23096	-319.46994	35.63976	562.49628	-306.72607	-190.08377	535.63690	623.91528	-35.45923	528.88867	636.59229	
3	0.020	-244.02635	53.00646	-193.60971	138.05774	16.60759	-165.43840	-277.01541	10.83062	432.58832	77.88154	57.10596	455.76065	-59.60809	1192.55322	-190.80865	-122.36657	556.12744	-319.81665	35.93093	562.37512	-306.89670	-190.83499	535.67444	623.30438	-36.22547	528.94922	636.22876	
4	0.030	-243.87782	45.26680	-194.40727	138.10194	16.58962	-165.39180	-277.19064	10.81963	432.55811	79.60193	50.47890	455.20761	-59.49936	1192.66089	-191.06490	-122.30813	556.10059	-320.21863	36.08932	562.32971	-307.09509	-191.51236	535.80988	622.79181	-37.30264	529.79163	636.93866	
5	0.040	-243.45195	38.10561	-195.35750	138.09686	16.57916	-165.39304	-277.36151	10.82139	432.41940	77.73119	42.68618	453.88251	-59.37982	1192.78711	-191.31700	-122.03292	556.50073	-321.14069	36.49862	562.31390	-307.30933	-191.84680	535.65125	622.04309	-37.15889	529.60669	636.30383	
6	0.050	-243.43866	31.72614	-196.32986	138.13202	16.57317	-165.38898	-277.41748	10.84261	432.33353	77.70827	36.43709	453.30798	-59.35589	1192.87744	-191.52858	-121.70055	556.65637	-321.62836	36.79141	562.46478	-307.79224	-192.79190	535.64697	621.47778	-37.90646	527.50128	633.99902	
7	0.060	-243.17297	26.65813	-197.24242	138.13654	16.58010	-165.33160	-277.50244	10.88482	432.20377	77.87663	30.18351	452.33450	-59.00013	1192.85498	-191.81430	-121.52393	556.60303	-322.04715	36.96357	562.51556	-308.24466	-192.93871	535.61896	621.24890	-38.76096	528.77917	634.60455	
8	0.070	-242.81258	22.61532	-198.87804	138.14963	16.57832	-165.33578	-277.55234	10.84354	432.17300	78.70312	23.69554	451.75439	-58.77986	1192.83862	-192.20483	-120.62560	556.40363	-322.60583	37.20491	562.65173	-308.60980	-193.65938	535.57245	620.38300	-39.36335	528.81714	634.09595	
9	0.080	-243.52670	22.31120	-200.31396	138.14789	16.58930	-165.29588	-277.52408	10.74669	432.18130	77.98367	19.15805	449.46387	-58.61629	1192.88831	-193.05145	-120.29368	556.49084	-323.05423	38.00933	562.69495	-309.03372	-194.00267	535.59052	619.67834	-39.81571	528.88306	633.70789	
10	0.090	-244.03043	20.82347	-200.45053	138.05074	16.73189	-165.25369	-277.50089	10.77092	432.12915	78.34000	18.06012	449.27124	-58.68019	1193.24292	-193.92194	-120.15099	557.13556	-323.42474	37.89988	563.12836	-309.36810	-194.50418	536.06232	619.16870	-40.20087	529.52716	633.04321	
11	0.100	-243.78331	21.46811	-200.02278	137.80186	16.82237	-165.62514	-277.33163	11.24886	431.65137	78.92915	17.96646	449.29462	-57.79874	1194.19922	-194.91176	-119.54093	557.80963	-324.66605	38.53540	563.56506	-309.63770	-195.49489	537.58508	618.10614	-40.90986	531.66888	633.18298	
12	0.110	-243.54695	21.16404	-200.38623	137.62843	17.80388	-165.62242	-277.07056	12.08663	431.50867	78.24928	18.09746	449.62479	-57.29148	1195.06372	-195.42648	-119.00415	557.88281	-325.02011	39.24454	563.95776	-310.22028	-196.07439	539.72626	617.84668	-41.94643	533.83801	632.97205	
13	0.120	-243.46397	20.58997	-200.56067	136.48355	20.10075	-163.43018	-275.93011	14.91843	433.48349	77.95896	17.60523	449.68784	-57.08206	1195.96021	-196.59991	-117.99728	558.38135	-324.92694	39.26832	564.71210	-310.23138	-196.43668	541.30811	617.35083	-42.57582	535.55927	632.70441	
14	0.130	-243.31683	20.75418	-200.43840	133.14275	22.52436	-160.68996	-273.78091	18.47630	436.26379	78.12184	17.69155	449.52185	-56.80243	1196.35925	-198.30905	-117.67361	559.46075	-325.53751	40.49373	565.22601	-310.29413	-197.34311	542.28333	616.55023	-43.31608	536.35767	631.97516	
15	0.140	-243.21579	20.68575	-200.53719	130.30440	30.18408	-159.60460	-270.60974	25.80098	436.89597	78.12881	17.58570	449.45795	-56.42022	1196.83777	-200.26266	-116.89413	559.75897	-326.15903	41.22469	565.99060	-310.73361	-198.29536	542.95715	616.01135	-43.92544	535.86316	630.28473	
16	0.150	-243.30705	20.71852	-200.62399	129.03133	38.82493	-158.88994	-268.47760	35.35064	436.54166	78.08511	17.61194	449.43054	-56.42648	1197.07117	-201.79268	-116.24117	559.80792	-326.16699	41.64558	566.28998	-310.85355	-198.40103	543.81464	615.69189	-44.23657	538.00824	631.43640	
17	0.160	-243.41054	20.61459	-200.70854	128.88739	48.59129	-160.03719	-268.07336	46.19577	434.12415	78.06608	17.79469	449.66568	-56.29113	1197.16028	-202.31075	-116.20705	559.90448	-326.54254	41.98476	566.18347	-311.07666	-198.65552	544.64417	615.48083	-44.51193	539.26306	631.57062	
18	0.170	-243.46217	20.68704	-200.82236	130.88605	60.03566	-161.04677	-270.53159	57.72924	431.55386	78.04411	17.62461	449.53836	-55.97127	1197.04639	-202.44269	-116.28261	559.82813	-326.79102	42.10057	566.06689	-311.45615	-198.63666	545.07123	615.06799	-45.04707	539.79639	631.42999	
19	0.180	-243.46291	20.47457	-200.68410	132.46542	71.51115	-162.88811	-273.88834	69.73799	429.67941	78.04485	17.33555	449.34543	-55.77654	1196.81714	-202.34589	-116.29756	559.63568	-327.17337	41.92915	565.86975	-311.97333	-198.43149	545.00641	614.75299	-45.02289	539.87079	630.98224	
20	0.190	-243.56352	20.43910	-200.70253	133.91043	83.31637	-163.98206	-275.97531	81.12709	427.48895	80.57915	18.05972	449.76047	-55.74889	1196.68408	-201.97153	-116.21535	559.55457	-327.45755	41.58794	565.47723	-312.17331	-198.56076	545.10156	614.41583	-44.47661	539.49261	630.46368	
21	0.200	-243.59732	20.43882	-200.69739	134.79489	95.26620	-165.48222	-278.34506	92.49538	425.66525	78.29389	17.26029	449.36172	-55.75248	1196.79822	-201.63782	-116.00134	559.34143	-327.89410	41.97061	565.30121	-312.22797	-198.21857	544.85077	614.17780	-44.29560	538.57709	629.42773	
22	0.210	-243.61469	20.44831	-200.76576	134.56755	105.85124	-167.98413	-279.31421	102.92910	424.15479	80.71245	18.03903	449.71823	-55.70130	1196.96082	-201.44534	-116.02960	559.17255	-328.24963	41.84835	565.31537	-312.49207	-197.84201	544.64844	614.02802	-43.98595	538.39667	629.36298	
23	0.220	-243.63618	20.44652	-200.82121	135.91815	117.62734	-167.50121	-279.86014	113.10490	422.45856	80.68605	18.00145	449.71671	-55.82037	1196.97681	-201.75497	-116.07693	559.17444	-328.41931	41.76902	565.28687	-312.79312	-197.56848	544.47974	613.95453	-44.09430	538.79279	629.87982	
24	0.230	-243.65436	20.45619	-200.80832	135.70013	127.18787	-168.79282	-279.93790	122.52386	420.71069	80.92361	18.05620	449.69363	-55.77214	1196.70947	-202.26425	-116.45145	559.34473	-328.70645	41.74305	565.20166	-312.86560	-197.30502	544.45844	613.91321	-43.43066	538.67157	629.82281	
25	0.240	-243.60414	20.40460	-200.75966	135.73532	135.97887	-169.75902	-279.99792	131.24556	419.70901	78.61395	17.19839	449.26358	-55.21142	1196.45251	-202.76416	-116.70786	559.28534	-328.67554	41.51099	565.34357	-313.21909	-197.17830	544.40228	613.92163	-43.27180	538.11328	629.15509	
26	0.250	-243.61574	20.36167	-200.71741	136.18872	143.45772	-170.31557	-280.83627	139.13885	418.38330	80.78640	17.90720	449.67169	-55.01963	1196.37439	-203.06995	-117.00656	559.25934	-328.50906	41.22380	565.09180	-312.97122	-196.85196	544.49884	614.15167	-43.10149	537.13507	627.86304	
27	0.260	-243.65125	20.36256	-200.64265	136.74951	149.21695	-170.91727	-281.42676	145.06877	417.27829	80.86853	17.91997	449.67987	-55.05919	1196.46948	-203.47316	-117.19743	559.23737	-328.44476	40.73252	565.08569	-312.96884	-196.64804	544.66345	614.19556	-42.61672	537.26990	627.89404	
28	0.270	-244.83757	20.99316	-200.43120	137.78638	152.00941	-170.68063	-283.50571	148.16989	417.24850	80.86042	17.95705	449.68622	-55.28000	1196.47839	-203.50858	-117.40527	559.30939	-328.36072	40.57358	565.08795	-312.94913	-196.07208	544.95477	614.20703	-42.21925	539.12091	629.79077	
29	0.280	-244.68036	20.98770	-200.51866	137.55746	151.62036	-170.30849	-284.32327	148.33508	417.44846	80.82805	17.89624	449.68710	-55.51529	1196.46985	-203.28395	-117.64173	559.37396	-328.24335	40.41519	565.32623	-313.23569	-195.76872	545.32623	614.43860	-41.72049	539.58496	630.04602	
30	0.290	-244.52434	20.82749	-200.41975	137.41692	148.96860	-169.50542	-285.41031	146.45531	418.29584	80.86216	17.90814	449.64999	-55.94629	1196.48181	-202.94856	-118.04069	559.41321	-327.97366	40.18788	565.30243	-313.21390	-195.32390	545.55353	614.71118	-41.03024	537.72632	628.07733	
31	0.300	-244.45023	20.80326	-200.32961	136.61110	144.79657	-169.10843	-285.86002	143.64539	419.50305	80.72195	17.79961	449.62759	-56.12790	1196.65576	-202.53462	-118.62492	559.46210	-327.63519	39.87403	565.25391	-313.19714	-194.71350	545.51691	614.97192	-40.66454	537.83978	628.15479	
32	0.310	-244.42085	20.76223	-200.24612	135.82208	139.97804	-168.87140	-285.67072	139.41165	420.78510	80.74649	17.75143	449.67563	-56.23605	1196.91992	-202.08708	-118.83195	559.50464	-327.51904	39.75400	565.22583	-313.17365	-194.45363	545.42780	615.14398	-40.37975	539.63080	630.07611	
33	0.320	-244.44112	20.80163	-200.21786	134.91982	134.24318	-168.67264	-285.44183	134.23161	421.67502	80.69516	17.73736	449.58932	-56.26717	1197.04895	-201.76440	-119.12926	559.66028	-327.35620	39.16875	565.27539	-313.09180	-194.03134	545.37244	615.39563	-39.92797	539.50934	630.23120	
34	0.330	-244.45384	20.80232	-200.18617	133.65279	128.12030	-168.92990	-286.17508	128.38710	422.55688	80.56236	17.47472	449.60681	-56.34035	1197.01428	-201.69414	-119.46560	559.72418	-327.15375	38.76360	565.32001	-312.99115	-193.53946	545.44220	615.98114	-39.39669	537.61633	628.49860	
35	0.340	-244.51295	20.80469	-200.12825	132.69189	121.66089	-169.29263	-286.81647	121.40871	422.83823	80.42044	17.28983	449.55969	-56.54071	1196.82983	-201.68512	-120.15429	559.69263	-326.91479	38.13253	565.18262	-312.81921	-192.89192	545.16754	616.19067	-38.92437	537.41132	628.75702	
36	0.350	-244.68123	20.44495	-199.90147	133.06920	114.96062	-168.76749	-287.26337	113.18111	423.24857	80.21558	17.03208	449.45569	-56.80533	1196.61865	-201.58566	-120.33011	559.33148	-326.44989	38.20787	565.00629	-312.54971	-192.65810	545.02783	616.47083	-38.51001	539.10236	630.72314	
37	0.360	-244.66631	20.19191	-199.70699	131.90074	106.97517	-169.14481	-287.94611	104.68232	424.13284	80.06604	16.81116	449.43295	-57.02816	1196.44507	-201.32632	-121.16354	559.38440	-326.55814	37.66465	564.85931	-312.51523	-192.00497	544.92047	617.01715	-38.16842	538.97540	630.87366	
38	0.370	-244.57938	20.12450	-199.78563	131.07274	98.33475	-169.39764	-288.06265	96.32912	424.85635	80.13087	16.73943	449.38580	-57.36819	1196.27014	-201.04745	-121.73849	559.20044	-326.16235	37.09939	564.82397	-312.52908	-191.64229	544.82153	617.25720	-37.92946	536.79852	629.15057	
39	0.380	-244.64674	19.97390	-199.63773	130.37543	88.58109	-169.57025	-287.64178	87.44300	426.28912	79.84468	16.56966	449.25607	-57.82650	1196.28137	-200.92200	-121.94131	559.08801	-325.76453	36.69476	564.89423	-312.34680	-191.57547	544.86017	617.42444	-37.56684	536.61041	629.47784	
40	0.390	-244.60988	20.12810	-199.79187	130.29797	78.39293	-169.16769	-287.37875	79.02527	427.11200	80.13911	16.59031	449.31360	-58.09058	1196.32654	-200.77950	-122.32487	559.22839	-325.49246	36.14066	564.79388	-311.95694	-191.02356	544.81488	617.91498	-37.09645	538.21252	631.15106	
41	0.400	-244.64468	19.82034	-199.51826	129.44223	67.49422	-168.45781	-287.46164	70.66340	427.78946	80.14441	16.62448	449.35095	-58.50132	1196.37866	-200.24706	-122.71656	559.35675	-325.21136	35.59070	564.75531	-311.76498	-190.74852	544.71838	618.26868	-36.79355	538.15503	631.36084	
42	0.410	-244.58893	19.88405	-199.68636	129.07288	58.59058	-167.39838	-287.77744	62.31603	428.39673	80.22535	16.54951	449.28897	-58.85803	1196.42383	-199.65144	-123.37957	559.36987	-324.86218	35.05042	564.76569	-311.45630	-190.44046	544.58044	618.62268	-36.41075	538.03308	631.68365	
